# xmcd
#
# Track frame offsets:
# 150
# 18546
# 37071
# 55529
# 75030
# 92879
# 113868
# 130803
# 149113
# 164926
#
# Disc length: 2394 seconds
#
#
# Revision: 4
# Processed by: cddbd v1.5.2PL0 Copyright (c) Steve Scherf et al.
# Submitted via: FreeRIP 2.941 
#
DISCID=8809580a
DTITLE=Natalino - Desde Que Te Vi
DYEAR=2008
DGENRE=Pop
TTITLE0=Ángel Del Pasado
TTITLE1=¿Y Qué Será?
TTITLE2=Y Es Por Eso
TTITLE3=Desde Que Te Vi
TTITLE4=Si Hablo De Ti, Hablo De Mí
TTITLE5=Cuando Me Hablan
TTITLE6=Desahogo
TTITLE7=En Aquella Tarde
TTITLE8=Me Volveré A Caer
TTITLE9=Maldición
EXTD=
EXTT0=
EXTT1=
EXTT2=
EXTT3=
EXTT4=
EXTT5=
EXTT6=
EXTT7=
EXTT8=
EXTT9=
PLAYORDER=
